# xmcd
#
# Track frame offsets: 
#        150
#        12952
#        27492
#        37917
#        48740
#        61755
#        76840
#        89282
#        101032
#        119490
#        132020
#        144145
#        155782
#        166602
#        186095
#        206385
#        219420
#        239267
#        252642
#        262235
#        273165
#        284005
#        294300
#        312020
#        328717
#
# Disc length: 4634 seconds
#
# Revision: 7
# Processed by: cddbd v1.5.2PL0 Copyright (c) Steve Scherf et al.
# Submitted via: ExactAudioCopyFreeDBPlugin 1.0
#
DISCID=67121819
DTITLE=Aretha Franklin - Queen of Soul:  The Atlantic Recordings (1967
DTITLE=1976) [box set]
DYEAR=1992
DGENRE=Soul
TTITLE0=Never Loved a Man (The Way I Love You)
TTITLE1=Do Right Woman - Do Right Man
TTITLE2=Save Me
TTITLE3=Respect
TTITLE4=Baby, Baby, Baby
TTITLE5=Dr. Feelgood (Love is a Serious Business)
TTITLE6=(You Make Me Feel Like) A Natural Woman
TTITLE7=Soul Serenade
TTITLE8=Drown in My Own Tears
TTITLE9=Chain of Fools
TTITLE10=Baby, I Love You
TTITLE11=Ain't Nobody (Gonna Turn Me Around)
TTITLE12=Since You've Been Gone (Sweet Sweet Baby)
TTITLE13=You Are My Sunshine
TTITLE14=Going Down Slow
TTITLE15=Never Let Me Go
TTITLE16=I Wonder
TTITLE17=Prove It
TTITLE18=Good Times
TTITLE19=Come Back Baby
TTITLE20=A Change
TTITLE21=You're a Sweet Sweet Man
TTITLE22=Good to Me as I Am to You
TTITLE23=People Get Ready
TTITLE24=Ain't No Way
EXTD=
EXTT0=
EXTT1=
EXTT2=
EXTT3=
EXTT4=
EXTT5=
EXTT6=
EXTT7=
EXTT8=
EXTT9=
EXTT10=
EXTT11=
EXTT12=
EXTT13=
EXTT14=
EXTT15=
EXTT16=
EXTT17=
EXTT18=
EXTT19=
EXTT20=
EXTT21=
EXTT22=
EXTT23=
EXTT24=
PLAYORDER=
